<svg width="345pt" height="150pt" viewBox="0 0 690 300" version="1.1" xmlns="http://www.w3.org/2000/svg">
<path fill="#fefefe" d=" M 0.00 0.00 L 690.00 0.00 L 690.00 300.00 L 0.00 300.00 L 0.00 0.00 Z" />
<path fill="#f0992c" d=" M 22.43 70.05 C 80.63 69.93 138.83 70.03 197.03 70.00 C 210.43 70.03 222.63 81.48 223.00 94.96 C 223.03 131.64 222.98 168.33 223.02 205.02 C 222.92 214.96 216.44 224.40 207.34 228.31 C 201.61 231.01 195.15 230.59 189.00 230.59 C 143.99 230.59 98.99 230.57 53.99 230.60 C 48.11 230.70 41.91 230.53 36.65 227.57 C 28.01 223.19 22.33 213.76 22.49 204.07 C 22.50 185.69 22.37 167.31 22.56 148.93 C 22.72 135.60 34.68 123.77 48.02 123.89 C 88.48 123.89 128.95 123.87 169.41 123.90 C 169.37 132.60 169.37 141.30 169.41 150.00 C 132.24 150.02 95.07 149.96 57.89 150.03 C 53.17 149.87 48.51 154.12 48.90 158.97 C 48.91 171.32 48.83 183.68 48.94 196.03 C 48.88 200.72 53.48 204.56 58.06 204.16 C 101.37 204.17 144.67 204.22 187.98 204.13 C 193.30 204.44 197.28 199.04 196.91 194.03 C 196.90 164.69 196.93 135.34 196.89 106.00 C 197.18 100.65 192.41 96.03 187.12 96.16 C 132.21 96.01 77.29 96.54 22.38 96.18 C 22.56 87.47 22.47 78.76 22.43 70.05 Z" />
<path fill="#2a2627" d=" M 283.37 70.23 C 291.76 70.16 300.15 70.17 308.54 70.22 C 315.83 91.75 322.90 113.35 330.20 134.88 C 331.23 137.50 332.25 140.67 335.04 141.90 C 337.48 142.46 340.00 142.30 342.49 142.42 C 342.47 146.16 342.47 149.90 342.49 153.64 C 327.14 153.79 311.79 153.74 296.44 153.66 C 296.41 149.90 296.41 146.14 296.44 142.38 C 300.07 142.35 303.76 142.38 307.27 141.31 C 306.91 136.41 305.20 131.79 303.81 127.13 C 295.37 127.19 286.93 127.10 278.49 127.18 C 277.22 131.74 275.52 136.21 274.95 140.94 C 278.60 142.55 282.65 142.30 286.54 142.41 C 286.56 146.16 286.57 149.91 286.54 153.67 C 274.18 153.75 261.82 153.76 249.46 153.66 C 249.43 149.91 249.44 146.16 249.44 142.42 C 251.95 142.29 254.50 142.47 256.97 141.87 C 259.69 140.58 260.70 137.48 261.72 134.87 C 269.00 113.35 276.07 91.75 283.37 70.23 Z" />
<path fill="#2a2627" d=" M 339.17 70.25 C 349.63 70.16 360.10 70.12 370.56 70.27 C 370.54 80.56 370.62 90.85 370.51 101.15 C 374.87 96.74 380.48 92.51 387.03 92.95 C 394.62 92.57 402.39 96.07 406.71 102.40 C 412.39 110.68 413.11 121.27 412.07 130.97 C 411.10 139.91 406.65 149.32 398.08 153.19 C 387.81 157.71 373.73 156.00 367.21 146.06 C 366.08 148.64 364.89 151.19 363.63 153.70 C 358.90 153.72 354.16 153.77 349.43 153.65 C 349.42 131.10 349.44 108.56 349.42 86.01 C 349.27 84.27 349.49 82.08 347.74 81.06 C 344.96 80.28 342.02 80.63 339.17 80.52 C 339.10 77.10 339.09 73.67 339.17 70.25 Z" />
<path fill="#2a2627" d=" M 409.56 70.20 C 419.99 70.21 430.42 70.13 440.85 70.24 C 440.98 80.54 440.91 90.85 440.88 101.16 C 445.33 96.53 451.22 92.32 457.97 92.95 C 466.55 92.62 475.00 97.57 478.80 105.29 C 483.39 114.54 483.83 125.46 481.61 135.43 C 479.95 142.82 475.50 150.01 468.40 153.20 C 458.08 157.72 444.11 155.96 437.49 146.08 C 436.37 148.67 435.18 151.22 433.92 153.74 C 429.23 153.70 424.55 153.72 419.87 153.72 C 419.75 131.12 419.86 108.53 419.82 85.93 C 419.81 84.37 419.58 82.74 418.63 81.44 C 415.83 80.00 412.51 80.74 409.48 80.50 C 409.48 77.06 409.47 73.63 409.56 70.20 Z" />
<path fill="#2a2627" d=" M 571.20 71.53 C 575.41 71.32 579.62 71.37 583.84 71.43 C 584.03 79.23 583.85 87.03 583.94 94.84 C 590.30 94.79 596.66 94.87 603.02 94.82 C 607.11 94.84 611.30 93.24 613.90 89.99 C 618.26 84.81 619.11 77.83 620.20 71.39 C 624.32 71.40 628.44 71.36 632.56 71.43 C 632.73 79.23 632.53 87.03 632.68 94.83 C 637.78 94.84 642.89 94.80 648.00 94.86 C 647.99 98.22 648.01 101.58 647.98 104.94 C 642.87 105.02 637.75 104.96 632.64 104.99 C 632.64 116.33 632.58 127.68 632.65 139.02 C 632.43 141.09 633.66 142.75 635.02 144.15 C 637.32 144.02 640.33 144.08 641.51 141.64 C 643.64 136.38 642.46 130.55 642.81 125.03 C 646.25 125.02 649.70 125.00 653.14 125.14 C 653.03 133.20 654.38 142.26 649.23 149.16 C 643.65 155.81 633.94 155.91 626.02 154.96 C 618.51 154.10 612.24 147.63 611.92 140.04 C 611.39 128.38 611.81 116.69 611.70 105.02 C 602.44 104.93 593.19 105.00 583.94 104.98 C 583.96 117.26 583.87 129.54 583.99 141.82 C 586.12 144.75 590.88 144.89 592.79 141.63 C 595.00 136.42 593.59 130.56 594.01 125.07 C 597.34 125.02 600.67 125.02 604.01 125.05 C 603.54 132.54 605.50 140.71 601.56 147.56 C 598.58 152.65 592.57 154.93 586.94 155.22 C 580.29 155.79 572.64 155.31 567.68 150.29 C 563.68 146.34 562.65 140.40 562.98 135.00 C 563.01 125.01 563.00 115.02 562.98 105.03 C 560.13 105.00 557.27 104.99 554.43 104.88 C 554.41 101.63 554.42 98.37 554.40 95.11 C 558.07 94.44 562.01 93.60 564.59 90.66 C 569.22 85.46 570.58 78.26 571.20 71.53 Z" />
<path fill="#fefefe" d=" M 282.20 116.00 C 285.23 107.26 287.69 98.29 291.17 89.72 C 294.26 98.43 297.04 107.24 300.04 115.98 C 294.09 116.02 288.14 115.99 282.20 116.00 Z" />
<path fill="#2a2627" d=" M 512.46 93.65 C 522.00 92.06 532.54 92.66 540.80 98.19 C 547.59 102.54 551.97 110.09 553.07 118.01 C 554.31 126.55 553.18 135.83 548.14 143.03 C 543.34 149.98 535.22 154.11 526.96 155.11 C 518.07 156.25 508.51 155.02 500.96 149.90 C 493.96 145.28 489.67 137.21 488.88 128.95 C 488.00 120.98 489.12 112.47 493.70 105.72 C 497.92 99.29 505.01 95.16 512.46 93.65 Z" />
<path fill="#fefefe" d=" M 518.39 103.46 C 522.18 102.27 526.82 103.78 528.56 107.51 C 531.24 113.26 531.04 119.81 531.05 126.01 C 530.95 131.15 530.76 136.62 528.30 141.26 C 526.08 145.56 519.97 146.28 516.15 143.85 C 512.50 141.13 511.92 136.24 511.37 132.05 C 510.72 125.13 510.70 118.05 512.22 111.23 C 512.96 107.92 514.84 104.36 518.39 103.46 Z" />
<path fill="#fefefe" d=" M 377.40 104.41 C 380.96 102.96 385.35 104.52 387.11 107.97 C 390.47 114.42 390.15 121.98 389.93 129.05 C 389.46 133.72 388.92 138.94 385.49 142.47 C 382.05 145.84 375.64 144.78 373.52 140.43 C 370.01 133.59 370.47 125.53 370.85 118.07 C 371.34 113.10 372.31 106.76 377.40 104.41 Z" />
<path fill="#fefefe" d=" M 448.25 104.22 C 451.61 103.16 455.53 104.58 457.25 107.70 C 460.29 112.89 460.26 119.15 460.34 124.99 C 460.16 130.62 460.03 136.77 456.65 141.56 C 453.55 145.96 446.03 145.16 443.79 140.31 C 440.26 133.44 440.82 125.39 441.12 117.91 C 441.73 112.83 442.77 106.25 448.25 104.22 Z" />
<path fill="#2a2627" d=" M 263.99 193.00 C 265.72 193.00 267.46 193.00 269.19 193.00 C 274.10 205.36 279.10 217.68 284.03 230.03 C 282.15 230.01 280.28 229.99 278.41 229.94 C 277.12 226.31 275.74 222.72 274.46 219.09 C 269.30 218.92 264.15 219.03 259.00 219.00 C 257.69 222.67 256.38 226.33 255.07 230.00 C 253.35 230.00 251.64 230.00 249.93 230.00 C 254.54 217.64 259.36 205.35 263.99 193.00 Z" />
<path fill="#2a2627" d=" M 298.87 193.00 C 304.27 193.02 309.67 192.97 315.07 192.99 C 318.64 193.09 322.71 194.02 324.86 197.15 C 328.35 202.26 327.16 210.55 321.42 213.53 C 315.85 215.97 309.63 214.69 303.76 215.00 C 303.75 220.00 303.75 225.00 303.76 230.00 C 302.12 230.00 300.49 229.99 298.87 230.00 C 298.87 217.67 298.86 205.33 298.87 193.00 Z" />
<path fill="#2a2627" d=" M 420.38 193.00 C 421.88 193.00 423.38 193.00 424.89 193.00 C 424.89 194.66 424.89 196.33 424.90 198.00 C 423.38 198.00 421.88 198.00 420.38 198.00 C 420.38 196.33 420.37 194.67 420.38 193.00 Z" />
<path fill="#2a2627" d=" M 502.92 194.98 C 505.42 192.45 509.35 192.76 512.58 193.27 C 512.64 194.46 512.65 195.65 512.64 196.85 C 510.65 197.10 508.44 196.64 506.70 197.82 C 505.70 199.34 505.99 201.27 505.76 202.99 C 507.50 203.00 509.25 203.00 511.00 203.00 C 510.99 204.33 510.99 205.66 511.00 207.00 C 509.29 207.00 507.59 207.00 505.89 207.00 C 505.89 214.67 505.89 222.33 505.89 230.00 C 504.38 230.00 502.88 230.00 501.38 230.00 C 501.39 222.33 501.38 214.66 501.38 207.00 C 500.42 207.00 498.49 207.00 497.52 207.00 C 497.51 205.66 497.51 204.33 497.52 203.00 C 498.47 203.00 500.38 203.00 501.33 203.00 C 501.56 200.32 500.77 197.08 502.92 194.98 Z" />
<path fill="#2a2627" d=" M 574.73 193.00 C 576.31 193.00 577.89 193.00 579.48 193.00 C 579.47 203.99 579.50 214.99 579.47 225.98 C 585.47 226.02 591.47 225.99 597.48 226.00 C 597.47 227.33 597.47 228.66 597.48 230.00 C 589.89 230.00 582.31 230.00 574.73 230.00 C 574.73 217.67 574.73 205.33 574.73 193.00 Z" />
<path fill="#2a2627" d=" M 602.35 193.04 C 603.85 193.01 605.37 192.99 606.89 192.97 C 606.89 194.65 606.89 196.33 606.89 198.01 C 605.38 198.00 603.88 198.00 602.38 197.99 C 602.37 196.34 602.36 194.69 602.35 193.04 Z" />
<path fill="#2a2627" d=" M 615.97 194.93 C 618.54 192.32 622.47 192.98 625.76 193.19 C 625.65 194.43 625.55 195.68 625.45 196.93 C 623.54 197.15 621.37 196.58 619.73 197.82 C 618.66 199.31 619.01 201.28 618.76 202.99 C 620.50 203.00 622.24 203.00 624.00 203.00 C 623.99 204.33 623.99 205.66 624.00 207.00 C 622.29 207.00 620.59 207.00 618.90 207.00 C 618.89 214.67 618.89 222.34 618.90 230.01 C 617.37 230.00 615.87 230.00 614.36 229.98 C 614.40 222.32 614.37 214.66 614.38 207.00 C 613.42 207.00 611.49 207.00 610.52 207.00 C 610.51 205.66 610.51 204.33 610.52 203.00 C 611.47 203.00 613.38 203.00 614.33 203.00 C 614.55 200.30 613.76 197.02 615.97 194.93 Z" />
<path fill="#fefefe" d=" M 303.76 197.00 C 308.06 197.08 312.38 196.82 316.68 197.14 C 323.07 197.97 323.66 208.73 317.54 210.44 C 313.04 211.55 308.34 210.76 303.76 211.00 C 303.75 206.33 303.75 201.67 303.76 197.00 Z" />
<path fill="#fefefe" d=" M 260.38 215.00 C 262.58 209.12 265.01 203.30 266.49 197.17 C 268.31 203.22 270.80 209.03 272.84 215.00 C 268.68 215.00 264.53 215.00 260.38 215.00 Z" />
<path fill="#2a2627" d=" M 337.15 205.80 C 338.59 204.36 339.81 202.25 342.01 202.01 C 344.10 201.58 345.96 202.75 347.80 203.53 C 347.28 204.83 346.77 206.14 346.27 207.45 C 344.71 206.71 342.96 205.27 341.19 206.37 C 338.65 207.45 338.25 210.56 338.00 212.97 C 337.73 218.64 337.97 224.32 337.89 230.00 C 336.34 229.99 334.79 230.00 333.24 230.00 C 333.24 221.00 333.25 212.00 333.24 203.00 C 334.59 203.00 335.95 203.00 337.31 203.00 C 337.27 203.70 337.19 205.10 337.15 205.80 Z" />
<path fill="#2a2627" d=" M 358.20 202.25 C 363.40 201.00 369.43 203.29 371.88 208.19 C 374.07 212.81 373.97 218.45 372.20 223.18 C 369.15 230.42 358.70 232.22 352.94 227.22 C 348.49 223.34 348.09 216.66 349.21 211.24 C 350.00 206.74 353.76 203.13 358.20 202.25 Z" />
<path fill="#2a2627" d=" M 382.26 206.05 C 384.60 203.75 387.55 201.53 391.04 201.97 C 394.04 201.92 396.43 203.98 397.95 206.39 C 401.38 200.68 411.86 200.06 413.77 207.29 C 414.87 214.78 413.99 222.44 414.27 230.00 C 412.75 230.00 411.24 230.00 409.73 230.00 C 409.69 224.03 409.80 218.06 409.70 212.10 C 409.68 209.87 409.24 207.03 406.76 206.29 C 402.96 204.80 398.79 208.14 398.73 212.05 C 398.43 218.02 398.71 224.02 398.62 230.00 C 397.08 230.00 395.53 230.00 394.00 230.00 C 393.88 223.31 394.25 216.59 393.79 209.92 C 393.74 207.02 390.51 205.20 387.89 206.17 C 384.80 206.79 383.08 210.02 383.02 212.96 C 382.71 218.64 382.98 224.33 382.89 230.01 C 381.38 230.00 379.87 230.00 378.37 229.99 C 378.39 220.99 378.38 212.00 378.38 203.00 C 379.73 203.00 381.10 203.00 382.47 203.00 C 382.40 204.01 382.33 205.03 382.26 206.05 Z" />
<path fill="#2a2627" d=" M 435.31 203.26 C 440.98 200.55 449.95 201.71 451.87 208.63 C 450.38 209.11 448.90 209.57 447.42 210.04 C 445.63 204.90 437.78 204.48 435.10 209.03 C 437.58 213.68 443.75 212.73 447.90 214.96 C 453.20 216.34 454.03 223.84 450.12 227.14 C 444.21 232.39 432.28 230.77 430.37 222.20 C 431.88 221.77 433.41 221.37 434.93 220.96 C 436.08 226.11 442.69 227.46 446.66 224.71 C 448.05 223.62 448.66 221.13 447.04 219.97 C 442.69 217.61 437.17 217.92 433.26 214.67 C 429.73 211.50 431.04 205.11 435.31 203.26 Z" />
<path fill="#2a2627" d=" M 457.43 208.60 C 460.62 201.12 471.99 199.60 477.10 205.88 C 479.93 208.84 480.17 213.13 480.39 217.00 C 473.68 217.02 466.96 216.95 460.25 217.05 C 460.70 221.20 463.30 225.93 468.00 226.01 C 471.49 226.52 474.19 223.88 475.65 221.01 C 477.20 221.37 478.75 221.76 480.31 222.15 C 477.47 231.18 464.07 232.78 458.55 225.51 C 455.21 220.65 455.23 213.92 457.43 208.60 Z" />
<path fill="#2a2627" d=" M 522.19 202.26 C 527.65 200.90 533.98 203.57 536.22 208.87 C 537.98 213.36 537.93 218.62 536.23 223.13 C 533.20 230.44 522.62 232.25 516.86 227.16 C 512.47 223.23 512.09 216.58 513.23 211.18 C 514.03 206.70 517.77 203.14 522.19 202.26 Z" />
<path fill="#2a2627" d=" M 546.16 205.80 C 547.58 204.36 548.81 202.25 551.02 202.01 C 553.08 201.61 554.93 202.74 556.78 203.47 C 556.27 204.80 555.78 206.13 555.28 207.47 C 553.70 206.70 551.91 205.25 550.13 206.40 C 547.65 207.50 547.26 210.55 547.01 212.93 C 546.72 218.61 546.97 224.31 546.89 230.00 C 545.34 230.00 543.79 230.00 542.24 230.00 C 542.24 221.00 542.25 212.00 542.24 203.00 C 543.59 203.00 544.94 203.00 546.31 203.00 C 546.27 203.70 546.19 205.10 546.16 205.80 Z" />
<path fill="#2a2627" d=" M 628.47 208.53 C 631.70 201.09 643.05 199.63 648.13 205.91 C 650.93 208.87 651.17 213.15 651.39 216.99 C 644.68 217.02 637.96 216.95 631.25 217.04 C 631.69 221.19 634.29 225.91 638.97 226.01 C 642.48 226.53 645.20 223.87 646.67 220.99 C 648.21 221.37 649.76 221.75 651.31 222.16 C 648.46 231.20 635.03 232.78 629.52 225.48 C 626.20 220.59 626.22 213.84 628.47 208.53 Z" />
<path fill="#2a2627" d=" M 420.37 203.01 C 421.87 203.00 423.38 202.99 424.90 202.99 C 424.89 212.00 424.89 221.02 424.89 230.03 C 423.37 230.01 421.85 229.98 420.34 229.95 C 420.42 220.97 420.37 211.99 420.37 203.01 Z" />
<path fill="#2a2627" d=" M 602.36 203.02 C 603.86 203.00 605.37 202.99 606.89 202.98 C 606.89 211.99 606.89 221.00 606.90 230.01 C 605.38 230.00 603.87 230.00 602.37 230.00 C 602.38 221.00 602.40 212.01 602.36 203.02 Z" />
<path fill="#fefefe" d=" M 358.34 206.50 C 362.52 204.59 367.64 207.72 368.45 212.10 C 369.19 216.10 369.23 221.02 366.08 224.05 C 362.47 227.74 355.51 225.97 354.08 221.04 C 352.53 216.11 352.77 208.75 358.34 206.50 Z" />
<path fill="#fefefe" d=" M 460.38 212.94 C 460.97 208.22 465.87 204.65 470.51 206.32 C 473.63 207.04 475.04 210.12 475.76 212.93 C 470.63 213.03 465.50 213.03 460.38 212.94 Z" />
<path fill="#fefefe" d=" M 522.31 206.51 C 526.26 204.68 531.18 207.39 532.28 211.48 C 533.13 214.84 533.16 218.57 531.75 221.79 C 530.10 225.42 525.24 227.24 521.71 225.21 C 517.90 223.45 517.10 218.73 517.32 214.96 C 517.33 211.55 518.87 207.74 522.31 206.51 Z" />
<path fill="#fefefe" d=" M 631.38 212.94 C 631.97 208.21 636.90 204.63 641.55 206.34 C 644.65 207.06 646.05 210.13 646.75 212.94 C 641.63 213.03 636.50 213.03 631.38 212.94 Z" />
</svg>
