<?xml version="1.0" standalone="no"?>
<!DOCTYPE svg PUBLIC "-//W3C//DTD SVG 1.1//EN" "http://www.w3.org/Graphics/SVG/1.1/DTD/svg11.dtd" >
<svg xmlns="http://www.w3.org/2000/svg">
<metadata>Generated by IcoMoon</metadata>
<defs>
<font id="icomoon" horiz-adv-x="1024">
<font-face units-per-em="1024" ascent="960" descent="-64" />
<missing-glyph horiz-adv-x="1024" />
<glyph unicode="&#x20;" d="" horiz-adv-x="512" />
<glyph unicode="&#x6e;" d="M64 768h896v-192h-896zM64 512h896v-192h-896zM64 256h896v-192h-896z" />
<glyph unicode="&#xe60;" d="M928 832h-832c-52.8 0-96-43.2-96-96v-640c0-52.8 43.2-96 96-96h832c52.8 0 96 43.2 96 96v640c0 52.8-43.2 96-96 96zM398.74 409.628l-270.74-210.892v501.642l270.74-290.75zM176.38 704h671.24l-335.62-252-335.62 252zM409.288 398.302l102.712-110.302 102.71 110.302 210.554-270.302h-626.528l210.552 270.302zM625.26 409.628l270.74 290.75v-501.642l-270.74 210.892z" />
<glyph unicode="&#x2022;" d="M705.614 448c0-110.89-89.894-200.784-200.784-200.784s-200.784 89.894-200.784 200.784c0 110.89 89.894 200.784 200.784 200.784 110.89 0 200.784-89.894 200.784-200.784z" horiz-adv-x="1010" />
<glyph unicode="&#x2714;" d="M864 832l-480-480-224 224-160-160 384-384 640 640z" />
<glyph unicode="&#xe600;" d="M999.014 52.122l-456.090 800.307c-6.298 11.059-18.125 17.869-30.925 17.869s-24.576-6.81-30.925-17.869l-456.038-800.307c-6.195-10.854-6.093-24.115 0.256-34.867s18.022-17.357 30.618-17.357h912.128c12.493 0 24.218 6.605 30.618 17.357 6.349 10.752 6.451 24.013 0.358 34.867zM568.32 102.298h-112.64v102.4h112.64v-102.4zM568.32 281.498h-112.64v307.2h112.64v-307.2z" />
<glyph unicode="&#xe601;" d="M33.032 960l-33.032-33.032 476.608-476.608-476.608-481.326 33.032-33.032 514.36 514.36z" horiz-adv-x="548" />
<glyph unicode="&#xe602;" d="M225.465 314.173c-21.528 0-39.585-7.64-54.169-22.918-14.584-15.28-21.876-33.683-21.876-55.211s7.292-39.585 21.876-54.169 32.641-21.876 54.169-21.876 39.585 7.292 54.169 21.876 21.876 32.641 21.876 54.169-7.292 39.933-21.876 55.211-32.641 22.918-54.169 22.918zM252.549 208.96c-7.64-7.64-16.667-11.459-27.084-11.459s-19.445 3.819-27.084 11.459-11.459 16.667-11.459 27.084 3.819 19.445 11.459 27.084 16.667 11.459 27.084 11.459 19.445-3.819 27.084-11.459 11.459-16.667 11.459-27.084-3.819-19.445-11.459-27.084zM768.195 314.173c-20.834 0-38.543-7.64-53.127-22.918-14.584-15.28-21.876-33.683-21.876-55.211s7.292-39.585 21.876-54.169 32.293-21.876 53.127-21.876 38.891 7.292 54.169 21.876 22.918 32.641 22.918 54.169-7.64 39.933-22.918 55.211-33.335 22.918-54.169 22.918zM796.321 208.96c-7.64-7.64-16.667-11.459-27.084-11.459s-19.445 3.819-27.084 11.459-11.459 16.667-11.459 27.084 3.819 19.445 11.459 27.084 16.667 11.459 27.084 11.459 19.445-3.819 27.084-11.459 11.459-16.667 11.459-27.084-3.819-19.445-11.459-27.084zM939.036 672.521h-543.772c-15.278 0-22.918-7.64-22.918-22.918v-191.674h-41.668v118.755c0 13.89-6.944 20.834-20.834 20.834h-143.756c-13.89 0-25.695-4.167-35.418-12.501s-15.278-19.445-16.667-33.335v2.083l-22.918-127.089v-2.083c-18.057-2.777-27.084-13.194-27.084-31.251 0-1.39 0.694-3.473 2.083-6.25h-2.083l31.251-143.756h33.335v2.083c0 25.001 9.375 46.529 28.126 64.586s40.975 27.084 66.669 27.084 47.919-9.027 66.669-27.084 28.126-39.585 28.126-64.586v-2.083h354.181v2.083c0 25.001 9.375 46.529 28.126 64.586s40.975 27.084 66.669 27.084 47.919-9.027 66.669-27.084 28.126-39.585 28.126-64.586v-2.083h97.921v406.267c0 15.278-6.944 22.918-20.834 22.918zM255.674 562.1v-104.171h-127.089l16.667 89.587c1.39 12.501 8.334 18.751 20.834 18.751h89.587v-4.167z" horiz-adv-x="1025" />
<glyph unicode="&#xe603;" d="M512.014 192v511.998l426.65-256-426.652-256zM1308.262 917.188c-191.532 27.544-403.108 42.81-625.598 42.81-222.476 0-434.080-15.266-625.584-42.81-36.72-143.642-57.080-302.332-57.080-469.188 0-166.856 20.36-325.546 57.080-469.188 191.504-27.528 403.108-42.81 625.584-42.81 222.488 0 434.066 15.28 625.598 42.81 36.706 143.642 57.066 302.332 57.066 469.188 0 166.856-20.36 325.546-57.066 469.188z" horiz-adv-x="1366" />
<glyph unicode="&#xe604;" d="M780.534 472.584c0-125.286-49.846-188.748-166.84-212.134-0.318 0-0.644-0.082-0.972-0.082-1.208 0-2.346 0.446-3.308 1.174-1.208 0.962-1.852 2.462-1.852 4v64.672c0 1.9 1.044 3.636 2.662 4.48 50.574 27.634 75.86 71.062 77.162 132.686h-74.664c-2.826 0-5.16 2.322-5.16 5.172v162.686c0 2.874 2.334 5.172 5.16 5.172h162.64c2.908 0 5.172-2.298 5.172-5.172v-162.652zM492.434 472.584c0-127.232-56.31-198.646-167.25-212.134-0.236-0.082-0.4-0.082-0.644-0.082-1.208 0-2.498 0.48-3.39 1.29-1.138 0.972-1.772 2.428-1.772 3.882v64.672c0 1.9 1.044 3.636 2.662 4.48 50.574 27.634 75.86 71.062 77.104 132.686h-74.606c-2.826 0-5.162 2.322-5.162 5.172v162.688c0 2.874 2.334 5.172 5.162 5.172h162.712c2.826 0 5.184-2.298 5.184-5.172v-162.652zM530 960c-292.71 0-530.004-209.472-530.004-467.924 0-131.044 61.2-249.326 159.486-334.31-21.568-124.51-160.61-175.002-151.076-209.26 117.472-48.638 352.808 58.42 410.254 86.124 35.96-6.778 73.164-10.486 111.34-10.486 292.71 0 529.99 209.448 529.99 467.936 0 258.498-237.28 467.924-529.99 467.924z" horiz-adv-x="1060" />
<glyph unicode="&#xe605;" d="M804.572 534.858v-109.714q0-22.856-16-38.856t-38.856-16h-237.714v-237.714q0-22.856-16-38.856t-38.856-16h-109.714q-22.858 0-38.858 16t-16 38.856v237.714h-237.714q-22.856 0-38.856 16t-16 38.856v109.714q0 22.856 16 38.856t38.856 16h237.714v237.714q0 22.858 16 38.858t38.856 16h109.714q22.858 0 38.858-16t16-38.858v-237.714h237.714q22.856 0 38.856-16t16-38.856z" horiz-adv-x="806" />
<glyph unicode="&#xe606;" d="M1014.662 137.34c-0.004 0.004-0.008 0.008-0.012 0.010l-310.644 310.65 310.644 310.65c0.004 0.004 0.008 0.006 0.012 0.010 3.344 3.346 5.762 7.254 7.312 11.416 4.246 11.376 1.824 24.682-7.324 33.83l-146.746 146.746c-9.148 9.146-22.45 11.566-33.828 7.32-4.16-1.55-8.070-3.968-11.418-7.31 0-0.004-0.004-0.006-0.008-0.010l-310.648-310.652-310.648 310.65c-0.004 0.004-0.006 0.006-0.010 0.010-3.346 3.342-7.254 5.76-11.414 7.31-11.38 4.248-24.682 1.826-33.83-7.32l-146.748-146.748c-9.148-9.148-11.568-22.452-7.322-33.828 1.552-4.16 3.97-8.072 7.312-11.416 0.004-0.002 0.006-0.006 0.010-0.010l310.65-310.648-310.65-310.652c-0.002-0.004-0.006-0.006-0.008-0.010-3.342-3.346-5.76-7.254-7.314-11.414-4.248-11.376-1.826-24.682 7.322-33.83l146.748-146.746c9.15-9.148 22.452-11.568 33.83-7.322 4.16 1.552 8.070 3.97 11.416 7.312 0.002 0.004 0.006 0.006 0.010 0.010l310.648 310.65 310.648-310.65c0.004-0.002 0.008-0.006 0.012-0.008 3.348-3.344 7.254-5.762 11.414-7.314 11.378-4.246 24.684-1.826 33.828 7.322l146.746 146.748c9.148 9.148 11.57 22.454 7.324 33.83-1.552 4.16-3.97 8.068-7.314 11.414z" />
<glyph unicode="&#xe607;" d="M919.871 304.392c9.402-5.060 16.806-12.292 22.227-21.685 5.425-9.397 8.137-20.239 8.137-32.527v-240.7c0-16.625-4.698-30.534-14.095-41.743-9.402-11.204-21.323-16.806-35.78-16.806h-778.486c-14.456 0-26.383 5.602-35.78 16.806s-14.095 25.118-14.095 41.743v240.7c0 12.292 2.711 23.311 8.132 33.069s13.192 16.806 23.311 21.148l304.67 142.031c-36.864 21.683-66.319 52.947-88.365 93.786s-33.069 86.92-33.069 138.24c0 36.141 5.783 70.114 17.348 101.918 11.565 31.804 27.467 59.452 47.706 82.944 20.239 23.492 44.092 42.104 71.56 55.838 27.467 13.734 56.742 20.6 87.823 20.6s60.356-6.867 87.823-20.6 51.32-32.346 71.56-55.838c20.241-23.492 36.139-51.14 47.706-82.944 11.565-31.804 17.348-65.777 17.348-101.918 0-49.875-10.837-95.232-32.522-136.072-21.685-40.841-50.236-72.463-85.658-94.872l302.5-143.119z" />
<glyph unicode="&#xe608;" d="M513.968 960l33.032-33.032-476.608-476.608 476.608-481.326-33.032-33.032-514.36 514.36z" horiz-adv-x="548" />
<glyph unicode="&#xe609;" d="M511.978 960c-282.736 0-511.978-229.254-511.978-512 0-282.77 229.242-512 511.978-512 282.78 0 512.022 229.23 512.022 512 0 282.746-229.242 512-512.022 512zM511.978 47.304c-221.262 0-400.674 179.4-400.674 400.696 0 221.306 179.412 400.696 400.674 400.696 221.33 0 400.718-179.39 400.718-400.696 0-221.294-179.39-400.696-400.718-400.696zM550.956 737.39h-77.936v-305.542l189.518-189.486 55.096 55.096-166.678 166.678z" />
<glyph unicode="&#xe60a;" d="M240.628 954.98v-873.098l198.588 195.136 20.078 14.746v-124.862h60.236v-110.432h60.236v-120.472h120.472v190.746h-60.236v120.472h-60.236v110.432h-31.686l1.254 0.942h234.038l-542.746 596.392z" />
<glyph unicode="&#xe60b;" d="M512 960.12c-157.77 0-291.588-103.956-335.436-247.372-9.918-32.436-14.842-67.222-14.842-102.908 0-20.022 1.718-39.274 4.948-58.38 0-1.542 0.782-4.12 0.988-5.938 0.622-3.318 1.266-6.61 1.98-9.894 0.712-2.954 1.936-5.53 2.968-8.904 9.962-40.62 25.738-79.132 48.484-112.8 0.662-0.978 1.308-1.996 1.98-2.966 95.758-185.74 280.024-474.954 280.024-474.954 0 0 209.736 300.424 306.74 489.796 16.89 27.278 29.66 57.47 38.59 89.054 5.472 16.238 9.894 30.386 9.894 40.57h-0.988c2.812 17.878 4.948 35.754 4.948 54.422 0 193.452-156.824 350.278-350.278 350.278zM512 718.684c69.948 0 126.654-56.704 126.654-126.654s-56.706-126.654-126.654-126.654c-69.95 0-126.654 56.704-126.654 126.654 0 69.95 56.704 126.654 126.654 126.654z" />
<glyph unicode="&#xe60c;" d="M245.622 948.476c-35.906 0-71.946-11.044-99.46-32l-7.784-6.054v-925.404l7.784-6.052c55.026-41.918 143.892-41.918 198.918 0l516.324 392.646c55.028 41.918 55.028 109.436 0 151.354l-516.324 393.514c-27.514 20.956-63.552 32-99.46 32z" />
<glyph unicode="&#xe60d;" d="M739.556 277.332c-39.094 0-75.002-13.288-103.778-35.396l-296.914 178.13c1.49 9.114 2.468 18.408 2.468 27.932 0 9.546-0.978 18.82-2.468 27.944l296.914 178.142c28.774-22.142 64.682-35.418 103.778-35.418 94.242 0 170.668 76.426 170.668 170.668s-76.424 170.666-170.668 170.666-170.668-76.424-170.668-170.666c0-9.524 0.978-18.818 2.492-27.932l-296.914-178.142c-28.774 22.118-64.682 35.408-103.8 35.408-94.242 0-170.668-76.426-170.668-170.668s76.424-170.668 170.668-170.668c39.116 0 75.026 13.278 103.8 35.418l296.914-178.142c-1.514-9.126-2.492-18.398-2.492-27.944 0-94.242 76.424-170.666 170.668-170.666s170.668 76.424 170.668 170.668-76.424 170.668-170.668 170.668z" horiz-adv-x="910" />
<glyph unicode="&#xe60e;" d="M754.528 744.422c29.726 0 53.886 24.138 53.886 53.898v107.786c0 29.774-24.162 53.9-53.886 53.9-29.798 0-53.912-24.126-53.912-53.9v-107.786c0-29.76 24.174-53.898 53.912-53.898zM269.472 744.422c29.726 0 53.9 24.138 53.9 53.898v107.786c0 29.774-24.114 53.9-53.9 53.9-29.736 0-53.888-24.126-53.888-53.9v-107.786c0-29.76 24.15-53.898 53.888-53.898zM431.156 151.58c29.726 0 53.888 24.15 53.888 53.9 0 29.784-24.162 53.886-53.888 53.886-29.738 0-53.9-24.102-53.9-53.886 0-29.75 24.162-53.9 53.9-53.9zM269.472 474.95c29.726 0 53.9 24.138 53.9 53.888 0 29.786-24.174 53.9-53.9 53.9-29.796 0-53.888-24.114-53.888-53.9 0-29.75 24.15-53.888 53.888-53.888zM269.472 313.264c29.726 0 53.9 24.15 53.9 53.888 0 29.808-24.174 53.934-53.9 53.934-29.796 0-53.888-24.126-53.888-53.934 0-29.736 24.15-53.886 53.888-53.886zM916.2 852.206h-53.886v-107.786h53.886v-700.626h-808.414v700.626h53.9v107.786h-53.9c-59.522 0-107.786-48.23-107.786-107.786v-700.602c0-59.558 48.264-107.822 107.786-107.822h808.414c59.534 0 107.786 48.264 107.786 107.822v700.602c0 59.558-48.252 107.786-107.786 107.786zM269.472 151.58c29.726 0 53.9 24.15 53.9 53.9 0 29.784-24.174 53.886-53.9 53.886-29.796 0-53.888-24.102-53.888-53.886 0-29.75 24.15-53.9 53.888-53.9zM431.156 313.264c29.726 0 53.888 24.15 53.888 53.888 0 29.808-24.102 53.934-53.888 53.934-29.798 0-53.9-24.126-53.9-53.934 0-29.736 24.162-53.886 53.9-53.886zM754.528 313.264c29.726 0 53.886 24.15 53.886 53.888 0 29.808-24.102 53.9-53.886 53.9-29.798 0-53.912-24.090-53.912-53.9 0-29.736 24.174-53.886 53.912-53.886zM754.528 474.95c29.726 0 53.886 24.138 53.886 53.888 0 29.786-24.102 53.9-53.886 53.9-29.798 0-53.912-24.114-53.912-53.9 0-29.75 24.174-53.888 53.912-53.888zM646.74 852.206h-269.472v-107.786h269.472v107.786zM592.83 582.736v0c-29.784 0-53.888-24.114-53.888-53.9 0-29.75 24.102-53.888 53.886-53.888 29.736 0 53.912 24.138 53.912 53.888 0 29.786-24.114 53.9-53.912 53.9zM431.156 474.95c29.726 0 53.888 24.138 53.888 53.888 0 29.786-24.162 53.9-53.888 53.9-29.738 0-53.9-24.114-53.9-53.9 0-29.75 24.162-53.888 53.9-53.888zM592.83 421.086v0c-29.784 0-53.888-24.126-53.888-53.934 0-29.736 24.162-53.886 53.886-53.886 29.736 0 53.912 24.15 53.912 53.886 0 29.808-24.114 53.934-53.912 53.934z" />
<glyph unicode="&#xe60f;" d="M704 320c-64-64-64-128-128-128s-128 64-192 128-128 128-128 192 64 64 128 128-128 256-192 256-192-192-192-192c0-128 131.5-387.5 256-512s384-256 512-256c0 0 192 128 192 192s-192 256-256 192z" />
<glyph unicode="&#xe610;" d="M864 960c88.364 0 160-71.634 160-160 0-36.020-11.91-69.258-32-96l-64-64-224 224 64 64c26.742 20.090 59.978 32 96 32zM64 224l-64-288 288 64 592 592-224 224-592-592zM715.578 596.422l-448-448-55.156 55.156 448 448 55.156-55.156z" />
<glyph unicode="&#xe611;" d="M384 896h640v-128h-640v128zM384 512h640v-128h-640v128zM384 128h640v-128h-640v128zM0 832c0 70.692 57.308 128 128 128s128-57.308 128-128c0-70.692-57.308-128-128-128-70.692 0-128 57.308-128 128zM0 448c0 70.692 57.308 128 128 128s128-57.308 128-128c0-70.692-57.308-128-128-128-70.692 0-128 57.308-128 128zM0 64c0 70.692 57.308 128 128 128s128-57.308 128-128c0-70.692-57.308-128-128-128-70.692 0-128 57.308-128 128z" />
<glyph unicode="&#xe612;" d="M960 704c35.346 0 64 28.654 64 64v128h-128v64h-832c-35.2 0-64-28.798-64-64v-896c0-35.2 28.796-64 64-64h832v256h64c35.346 0 64 28.654 64 64v128h-128v64h64c35.346 0 64 28.654 64 64v128h-128v64h64zM576 703.67c70.51 0 127.67-57.16 127.67-127.67s-57.16-127.67-127.67-127.67c-70.51 0-127.67 57.16-127.67 127.67s57.16 127.67 127.67 127.67zM256 0h-64v896h64v-896zM768 192h-384v64c0 70.694 57.308 128 128 128v0h128c70.696 0 128-57.306 128-128v-64z" />
<glyph unicode="&#xe613;" d="M256 640c0 141.384 114.616 256 256 256s256-114.616 256-256c0-141.384-114.616-256-256-256-141.384 0-256 114.616-256 256zM768 320h-512c-141.384 0-256-114.618-256-256v-64h1024v64c0 141.382-114.616 256-256 256z" />
<glyph unicode="&#xe614;" d="M767.936 192c-70.688 0-128-57.312-128-128s57.312-128 128-128 128 57.312 128 128c0 70.688-57.312 128-128 128zM447.938 192c-70.688 0-128-57.312-128-128s57.312-128 128-128c70.688 0 128 57.312 128 128 0 70.688-57.312 128-128 128zM1012 741.438c-12.188 16.722-31.438 26.562-52.062 26.562h-657.876l-49.438 148.28c-8.688 26.126-33.126 43.718-60.686 43.718h-127.94c-35.376 0-63.998-28.594-63.998-64 0-35.404 28.624-64 63.998-64h81.814l177.372-532.25c8.752-26.126 33.19-43.754 60.75-43.754h448.002c27.688 0 52 17.628 60.752 43.754l128 384.030c6.496 19.5 3.248 40.938-8.69 57.656z" />
<glyph unicode="&#xe615;" d="M225 512c123.712 0 224-100.29 224-224 0-123.712-100.288-224-224-224-123.712 0-224 100.288-224 224l-1 32c0 247.424 200.576 448 448 448v-128c-85.474 0-165.834-33.286-226.274-93.726-11.634-11.636-22.252-24.016-31.83-37.020 11.438 1.8 23.16 2.746 35.104 2.746zM801 512c123.71 0 224-100.29 224-224 0-123.712-100.29-224-224-224-123.71 0-224 100.288-224 224l-1 32c0 247.424 200.576 448 448 448v-128c-85.474 0-165.834-33.286-226.274-93.726-11.636-11.636-22.254-24.016-31.832-37.020 11.44 1.8 23.16 2.746 35.106 2.746z" />
<glyph unicode="&#xe616;" d="M192 832l640-384-640-384z" />
<glyph unicode="&#xe617;" d="M468.519 265.078c-5.159 1.694-37.534 34.934-17.29 97.438h-0.276c52.775 55.178 97.989 143.911 97.989 231.424 0 134.38-92.948 204.839-195.269 204.839-102.4 0-191.212-70.459-191.212-204.839 0-87.788 41.393-176.955 94.444-232.094 20.677-55.020-16.305-93.854-24.064-96.768-107.126-39.306-232.842-111.065-232.842-181.839v-26.545c0-96.453 184.202-118.39 354.698-118.39 170.693 0 352.61 21.937 352.61 118.39v26.545c0 72.901-126.346 144.069-238.789 181.839zM797.885 442.25c-4.805 1.615-35.289 9.058-16.266 67.86h-0.236c49.625 51.83 83.85 135.404 83.85 217.521 0 126.385-79.163 192.63-175.301 192.63-70.853 0-131.86-36.155-159.232-105.472 57.462-47.458 97.004-121.344 97.004-220.83 0-106.22-49.782-203.146-101.849-265.689 82.944-31.39 212.559-94.484 249.698-191.055 130.639 7.286 246.863 34.383 246.863 109.174v24.93c-0.039 68.529-118.784 135.444-224.532 170.929z" />
<glyph unicode="&#xe618;" d="M7.492 732.518l55.359-176.602 36.565-44.577-6.946 56.936-84.977 164.244zM320.808 696.72l-320.816 48.796 222.969 188.748 289.877 25.74-192.030-263.284zM498.604 774.282l-46.281 73.045-125.505-168.761-204.814 31.536 21.649-90.56c0 0.128 0.085 0.256 0.213 0.426-0.639-4.006-0.298-7.799 1.108-11.208 12.487-29.959 176.73-70.061 218.665-52.674 41.935 17.473 156.743 173.491 144.299 203.451-1.321 3.281-3.665 6.009-9.333 14.745zM1049.719 803.304h-539.993l22.374-35.201c3.452-5.114 5.199-8.097 6.52-11.336 1.023-2.344 2.557-6.222 2.685-12.529h478.838v-749.197h-749.111v528.912c-19.518 3.708-39.932 8.736-59.024 14.66v-573.063c0-16.322 13.211-29.533 29.448-29.533h808.263c16.322 0 29.533 13.254 29.533 29.533v808.22c0 16.279-13.168 29.533-29.533 29.533zM543.266 160.052c-3.495 0-6.989 0.938-10.185 2.6-7.202 3.793-11.72 11.251-11.72 19.39v375.152c0 8.14 4.517 15.64 11.72 19.433 7.16 3.793 15.896 3.281 22.629-1.321l273.597-187.555c5.881-4.134 9.503-10.867 9.503-18.112s-3.58-13.978-9.503-18.027l-273.597-187.597c-3.75-2.6-8.097-3.963-12.444-3.963z" horiz-adv-x="1079" />
<glyph unicode="&#xe619;" d="M498.556 464.622v-41.289h-148.626v-146.557h47.682l2.582 0.87v94.571h204.51v51.115h-56.657v41.289h-49.491zM546.758 83.419v-97.163h-50.264v97.163h50.264zM498.135 465.047h-49.394v49.403h49.394v-49.403zM497.36 180.496v-97.076h-50.264v97.076h50.264zM399.594-13.661l-0.261-0.077v-50.264h97.163v50.342h-96.902zM448.306 514.895h-49.394v49.384h49.394v-49.384zM447.867 277.648v-97.153h-50.255v96.283l2.582 0.87h47.672zM399.594 83.419v-97.076l-0.261-0.087h-50.003v97.163h50.264zM398.468 564.714h-49.394v49.403h49.394v-49.403zM349.072 83.419v-0.87h-50.264v96.215l0.261 0.861h50.003v-96.205zM348.648 614.543h-49.403v49.394h49.403v-49.394zM299.070 275.92v-96.292l-0.261-0.861h-50.003v97.153h50.264zM298.81 664.382h-49.394v49.403h49.394v-49.403zM248.981 714.211h-49.403v49.481h49.403v-49.481zM248.803 275.92v-0.87h-49.819l-0.532 2.166v94.996h50.351v-96.292zM199.142 764.030h-49.384v49.491h49.384v-49.491zM198.98 275.051v-47.237h-49.403v49.403h48.872l0.532-2.166zM149.313 177.901h-49.403v49.481h49.403v-49.481zM149.313 813.956h-49.403v49.394h49.403v-49.394zM0 960.001v-872.346h50.264v40.409h49.394v49.491h-49.394v686.223h49.22v49.413h-49.22v46.811h-50.264z" horiz-adv-x="605" />
<glyph unicode="&#xe61a;" d="M514.708 334.782l-340.884 193.808-133.824-76.084 474.708-269.954 474.72 269.954-133.822 76.084zM514.708 112.17l-340.884 193.814-133.824-76.088 474.708-269.896 474.72 269.896-133.822 76.088zM989.428 670.106l-474.72 269.894-474.708-269.894 474.708-269.898z" />
<glyph unicode="&#xe61b;" d="M1034.165 393.201c9.703 12.475 14.416 28.509 10.119 44.958l-127.388 482.844c-7.393 27.908-36.086 44.634-63.948 37.241l-813.997-214.623c-27.769-7.347-44.542-36.132-37.241-63.994l127.388-482.798c7.3-27.908 36.132-44.588 63.994-37.334l287.627 75.869v-161.626c0-90.424 149.844-137.738 297.977-137.738 148.042 0 298.070 47.314 298.070 137.738v245.165c0 29.479-16.126 54.199-42.601 74.298zM941.986 559.632l13.307-50.271-161.811-42.74-13.215 50.364 161.718 42.647zM848.097 877.708l25.274-95.737-252.789-66.72-25.274 95.737 252.789 66.72zM734.663 504.971l12.937-49.162c-59.836-2.68-118.054-13.122-164.814-30.957l-9.888 37.334 161.764 42.786zM171.329 302.592l-13.215 50.179 161.764 42.786 13.307-50.456-161.857-42.509zM365.483 407.524l161.672 42.74 12.244-46.020c-3.927-2.449-7.624-4.898-11.228-7.485l-149.474-39.459-13.215 50.225zM1022.799 77.711c0-52.72-109.229-95.414-244.102-95.414-134.734 0-244.056 42.74-244.056 95.414v59.374c0 1.987 1.155 3.789 1.479 5.683 7.716-49.994 112.787-89.638 242.577-89.638 129.883 0 234.954 39.644 242.624 89.638 0.323-1.894 1.479-3.696 1.479-5.683v-59.374zM1022.799 194.518c0-52.674-109.229-95.321-244.102-95.321-134.734 0-244.056 42.694-244.056 95.321v59.374c0 1.941 1.155 3.789 1.479 5.683 7.716-49.948 112.787-89.684 242.577-89.684 129.883 0 234.954 39.736 242.624 89.684 0.323-1.894 1.479-3.743 1.479-5.683v-59.374zM778.696 223.581c-134.734 0-244.056 42.694-244.056 95.321s109.322 95.321 244.056 95.321c134.873 0 244.102-42.694 244.102-95.321s-109.229-95.321-244.102-95.321z" horiz-adv-x="1077" />
<glyph unicode="&#xe61c;" d="M1027.848 622.815l200.362 111.276-44.216 23.909-365.761 199.298-201.508-109.966-206.994 112.668-409.731-222.879 43.561-24.564 159.749-88.759-1.883-0.901h-0.164v-0.164l-197.742-107.755 197.742-106.281v-267.177l412.761-205.602 412.842 205.602v266.44l199.461 107.1-198.479 107.755zM818.234 894.332l295.098-160.65-142.8-79.506-298.537 160.404 146.239 79.752zM114.469 736.548l295.18 160.65 146.321-79.67-298.701-160.486-142.8 79.506zM119.464 515.224l146.239 79.916 298.21-161.305-145.911-78.933-298.537 160.322zM256.614 175.91v202.982l161.96-86.957 167.937 93.262v-373.54l-329.897 164.253zM971.678 175.91l-329.815-164.171v374.031l168.756-93.835 161.059 86.384v-202.409zM1110.057 515.388l-298.783-160.486-143.373 78.933 295.426 161.305 146.73-79.752z" horiz-adv-x="1228" />
<glyph unicode="&#xe61d;" d="M396.27-64c-145.986 0-281.867 42.794-396.27 116.138 20.223-2.387 40.801-3.608 61.667-3.608 121.112 0 232.577 41.329 321.050 110.66-113.121 2.086-208.588 76.824-241.483 179.528 15.784-3.019 31.977-4.636 48.636-4.636 23.573 0 46.413 3.158 68.105 9.065-118.259 23.747-207.367 128.229-207.367 253.48 0 1.092 0.004 2.171 0.022 3.249 34.856-19.362 74.716-30.99 117.090-32.331-69.364 46.356-115 125.481-115 215.165 0 47.379 12.744 91.781 34.997 129.961 127.502-156.398 317.982-259.314 532.827-270.094-4.406 18.919-6.697 38.65-6.697 58.911 0 142.76 115.747 258.503 258.516 258.503 74.35 0 141.534-31.396 188.692-81.637 58.883 11.596 114.208 33.11 164.154 62.736-19.302-60.367-60.289-111.028-113.664-143.023 52.292 6.25 102.114 20.145 148.475 40.706-34.659-51.841-78.489-97.372-128.993-133.819 0.498-11.084 0.747-22.233 0.747-33.442 0-341.604-260.014-735.512-735.504-735.512z" horiz-adv-x="1260" />
<glyph unicode="&#xe61e;" d="M853.344 960h-682.66c-93.872 0-170.684-76.814-170.684-170.688v-682.626c0-93.938 76.812-170.686 170.684-170.686l682.66 0.002c93.876 0 170.656 76.746 170.656 170.688v682.622c0 93.874-76.782 170.688-170.656 170.688zM870.592 448h-166.592v-448h-192v448h-92.526v146.564h92.526v95.186c0 129.342 55.792 206.25 207.87 206.25h175.244v-158.57h-143.13c-42.482 0.070-47.752-22.152-47.752-63.512l-0.232-79.354h192l-25.408-146.564z" />
<glyph unicode="&#xe61f;" d="M800 832h-576c-53.020 0-96-42.98-96-96v-32h768v32c0 53.020-42.98 96-96 96zM632.32 896l14.116-101h-268.872l14.114 101h240.642zM640 960h-256c-26.4 0-50.99-21.392-54.642-47.538l-18.714-133.924c-3.654-26.146 14.956-47.538 41.356-47.538h320c26.4 0 45.010 21.392 41.358 47.538l-18.714 133.924c-3.654 26.146-28.244 47.538-54.644 47.538v0zM816 640h-608c-35.2 0-61.392-28.682-58.206-63.738l52.412-576.526c3.186-35.054 34.594-63.736 69.794-63.736h480c35.2 0 66.608 28.682 69.794 63.736l52.41 576.526c3.188 35.056-23.004 63.738-58.204 63.738zM384 64h-96l-32 448h128v-448zM576 64h-128v448h128v-448zM736 64h-96v448h128l-32-448z" />
<glyph unicode="&#xe620;" d="M1024 688.5l-33 33-477-477-481 477-33-33 514-514 510 514z" />
<glyph unicode="&#xe634;" d="M1606.246 924.365l-1.229 0.819c-18.227 21.504-44.032 34.816-72.704 34.816h-1430.118c-29.286 0-55.296-14.131-73.933-36.045l-0.41 0.41c-39.936-44.442-39.936-116.531 0-160.973l716.595-794.010c39.936-44.646 104.653-44.646 144.589 0l2.458 4.301 714.752 789.709c40.141 44.442 40.141 116.531 0 160.973z" horiz-adv-x="1636" />
<glyph unicode="" d="M1606.246 924.365l-1.229 0.819c-18.227 21.504-44.032 34.816-72.704 34.816h-1430.118c-29.286 0-55.296-14.131-73.933-36.045l-0.41 0.41c-39.936-44.442-39.936-116.531 0-160.973l716.595-794.010c39.936-44.646 104.653-44.646 144.589 0l2.458 4.301 714.752 789.709c40.141 44.442 40.141 116.531 0 160.973z" horiz-adv-x="1636" />
<glyph unicode="twitter" d="M396.27-64c-145.986 0-281.867 42.794-396.27 116.138 20.223-2.387 40.801-3.608 61.667-3.608 121.112 0 232.577 41.329 321.050 110.66-113.121 2.086-208.588 76.824-241.483 179.528 15.784-3.019 31.977-4.636 48.636-4.636 23.573 0 46.413 3.158 68.105 9.065-118.259 23.747-207.367 128.229-207.367 253.48 0 1.092 0.004 2.171 0.022 3.249 34.856-19.362 74.716-30.99 117.090-32.331-69.364 46.356-115 125.481-115 215.165 0 47.379 12.744 91.781 34.997 129.961 127.502-156.398 317.982-259.314 532.827-270.094-4.406 18.919-6.697 38.65-6.697 58.911 0 142.76 115.747 258.503 258.516 258.503 74.35 0 141.534-31.396 188.692-81.637 58.883 11.596 114.208 33.11 164.154 62.736-19.302-60.367-60.289-111.028-113.664-143.023 52.292 6.25 102.114 20.145 148.475 40.706-34.659-51.841-78.489-97.372-128.993-133.819 0.498-11.084 0.747-22.233 0.747-33.442 0-341.604-260.014-735.512-735.504-735.512z" horiz-adv-x="1260" />
<glyph unicode="share" d="M739.556 277.332c-39.094 0-75.002-13.288-103.778-35.396l-296.914 178.13c1.49 9.114 2.468 18.408 2.468 27.932 0 9.546-0.978 18.82-2.468 27.944l296.914 178.142c28.774-22.142 64.682-35.418 103.778-35.418 94.242 0 170.668 76.426 170.668 170.668s-76.424 170.666-170.668 170.666-170.668-76.424-170.668-170.666c0-9.524 0.978-18.818 2.492-27.932l-296.914-178.142c-28.774 22.118-64.682 35.408-103.8 35.408-94.242 0-170.668-76.426-170.668-170.668s76.424-170.668 170.668-170.668c39.116 0 75.026 13.278 103.8 35.418l296.914-178.142c-1.514-9.126-2.492-18.398-2.492-27.944 0-94.242 76.424-170.666 170.668-170.666s170.668 76.424 170.668 170.668-76.424 170.668-170.668 170.668z" horiz-adv-x="910" />
<glyph unicode="remove" d="M800 832h-576c-53.020 0-96-42.98-96-96v-32h768v32c0 53.020-42.98 96-96 96zM632.32 896l14.116-101h-268.872l14.114 101h240.642zM640 960h-256c-26.4 0-50.99-21.392-54.642-47.538l-18.714-133.924c-3.654-26.146 14.956-47.538 41.356-47.538h320c26.4 0 45.010 21.392 41.358 47.538l-18.714 133.924c-3.654 26.146-28.244 47.538-54.644 47.538v0zM816 640h-608c-35.2 0-61.392-28.682-58.206-63.738l52.412-576.526c3.186-35.054 34.594-63.736 69.794-63.736h480c35.2 0 66.608 28.682 69.794 63.736l52.41 576.526c3.188 35.056-23.004 63.738-58.204 63.738zM384 64h-96l-32 448h128v-448zM576 64h-128v448h128v-448zM736 64h-96v448h128l-32-448z" />
<glyph unicode="play" d="M245.622 948.476c-35.906 0-71.946-11.044-99.46-32l-7.784-6.054v-925.404l7.784-6.052c55.026-41.918 143.892-41.918 198.918 0l516.324 392.646c55.028 41.918 55.028 109.436 0 151.354l-516.324 393.514c-27.514 20.956-63.552 32-99.46 32z" />
<glyph unicode="facebook" d="M853.344 960h-682.66c-93.872 0-170.684-76.814-170.684-170.688v-682.626c0-93.938 76.812-170.686 170.684-170.686l682.66 0.002c93.876 0 170.656 76.746 170.656 170.688v682.622c0 93.874-76.782 170.688-170.656 170.688zM870.592 448h-166.592v-448h-192v448h-92.526v146.564h92.526v95.186c0 129.342 55.792 206.25 207.87 206.25h175.244v-158.57h-143.13c-42.482 0.070-47.752-22.152-47.752-63.512l-0.232-79.354h192l-25.408-146.564z" />
<glyph unicode="email" d="M928 832h-832c-52.8 0-96-43.2-96-96v-640c0-52.8 43.2-96 96-96h832c52.8 0 96 43.2 96 96v640c0 52.8-43.2 96-96 96zM398.74 409.628l-270.74-210.892v501.642l270.74-290.75zM176.38 704h671.24l-335.62-252-335.62 252zM409.288 398.302l102.712-110.302 102.71 110.302 210.554-270.302h-626.528l210.552 270.302zM625.26 409.628l270.74 290.75v-501.642l-270.74 210.892z" />
<glyph unicode="close" d="M1014.662 137.34c-0.004 0.004-0.008 0.008-0.012 0.010l-310.644 310.65 310.644 310.65c0.004 0.004 0.008 0.006 0.012 0.010 3.344 3.346 5.762 7.254 7.312 11.416 4.246 11.376 1.824 24.682-7.324 33.83l-146.746 146.746c-9.148 9.146-22.45 11.566-33.828 7.32-4.16-1.55-8.070-3.968-11.418-7.31 0-0.004-0.004-0.006-0.008-0.010l-310.648-310.652-310.648 310.65c-0.004 0.004-0.006 0.006-0.010 0.010-3.346 3.342-7.254 5.76-11.414 7.31-11.38 4.248-24.682 1.826-33.83-7.32l-146.748-146.748c-9.148-9.148-11.568-22.452-7.322-33.828 1.552-4.16 3.97-8.072 7.312-11.416 0.004-0.002 0.006-0.006 0.010-0.010l310.65-310.648-310.65-310.652c-0.002-0.004-0.006-0.006-0.008-0.010-3.342-3.346-5.76-7.254-7.314-11.414-4.248-11.376-1.826-24.682 7.322-33.83l146.748-146.746c9.15-9.148 22.452-11.568 33.83-7.322 4.16 1.552 8.070 3.97 11.416 7.312 0.002 0.004 0.006 0.006 0.010 0.010l310.648 310.65 310.648-310.65c0.004-0.002 0.008-0.006 0.012-0.008 3.348-3.344 7.254-5.762 11.414-7.314 11.378-4.246 24.684-1.826 33.828 7.322l146.746 146.748c9.148 9.148 11.57 22.454 7.324 33.83-1.552 4.16-3.97 8.068-7.314 11.414z" />
<glyph unicode="cart" d="M767.936 192c-70.688 0-128-57.312-128-128s57.312-128 128-128 128 57.312 128 128c0 70.688-57.312 128-128 128zM447.938 192c-70.688 0-128-57.312-128-128s57.312-128 128-128c70.688 0 128 57.312 128 128 0 70.688-57.312 128-128 128zM1012 741.438c-12.188 16.722-31.438 26.562-52.062 26.562h-657.876l-49.438 148.28c-8.688 26.126-33.126 43.718-60.686 43.718h-127.94c-35.376 0-63.998-28.594-63.998-64 0-35.404 28.624-64 63.998-64h81.814l177.372-532.25c8.752-26.126 33.19-43.754 60.75-43.754h448.002c27.688 0 52 17.628 60.752 43.754l128 384.030c6.496 19.5 3.248 40.938-8.69 57.656z" />
</font>
</defs>
</svg>
